<!DOCTYPE svg PUBLIC "-//W3C//DTD SVG 20010904//EN"
 "http://www.w3.org/TR/2001/REC-SVG-20010904/DTD/svg10.dtd">
<svg version="1.0" xmlns="http://www.w3.org/2000/svg"
 width="64.000000pt" height="64.000000pt" viewBox="0 0 512.000000 512.000000"
 preserveAspectRatio="xMidYMid meet">

<g transform="translate(0.000000,512.000000) scale(0.100000,-0.100000)"
fill="#000000" stroke="none">
<path d="M187 4932 c-147 -147 -188 -194 -185 -211 2 -18 40 15 213 189 175
175 206 210 185 210 -19 0 -69 -44 -213 -188z"/>
<path d="M287 4832 c-227 -227 -288 -294 -285 -311 2 -17 59 35 313 289 255
255 305 310 285 310 -20 0 -89 -64 -313 -288z"/>
<path d="M387 4732 c-307 -307 -388 -393 -385 -411 2 -17 79 55 413 389 335
335 405 410 385 410 -20 0 -109 -84 -413 -388z"/>
<path d="M487 4632 c-388 -388 -488 -493 -485 -511 2 -17 99 74 513 489 415
415 505 510 485 510 -20 0 -129 -104 -513 -488z"/>
<path d="M587 4532 c-468 -468 -588 -593 -585 -611 2 -17 118 94 613 589 495
495 605 610 585 610 -20 0 -149 -124 -613 -588z"/>
<path d="M687 4432 c-548 -548 -688 -693 -685 -711 2 -17 138 114 713 689 575
575 705 710 685 710 -20 0 -169 -144 -713 -688z"/>
<path d="M787 4332 c-629 -629 -788 -793 -785 -811 2 -17 158 133 813 789 655
655 805 810 785 810 -20 0 -189 -164 -813 -788z"/>
<path d="M887 4232 c-709 -709 -888 -893 -885 -911 2 -17 177 153 913 889 735
735 905 910 885 910 -20 0 -209 -184 -913 -888z"/>
<path d="M987 4132 c-789 -789 -988 -993 -985 -1011 2 -17 197 173 1013 989
815 815 1005 1010 985 1010 -20 0 -229 -204 -1013 -988z"/>
<path d="M1087 4032 c-870 -870 -1088 -1093 -1085 -1111 2 -17 217 193 1113
1089 895 895 1105 1110 1085 1110 -20 0 -249 -224 -1113 -1088z"/>
<path d="M1187 3932 c-950 -950 -1188 -1193 -1185 -1211 2 -17 237 212 1213
1189 975 975 1205 1210 1185 1210 -20 0 -269 -244 -1213 -1188z"/>
<path d="M2125 4670 c-383 -384 -461 -457 -525 -494 -247 -143 -513 -409 -656
-656 -37 -64 -110 -142 -494 -525 -353 -353 -450 -455 -450 -475 0 -20 78 53
425 400 l426 425 -29 -70 c-16 -38 -36 -93 -45 -120 -15 -45 -55 -88 -397
-430 -297 -297 -380 -385 -380 -405 0 -20 67 42 371 345 248 248 368 362 364
345 -3 -14 -12 -56 -20 -94 l-14 -70 -351 -351 c-272 -272 -350 -356 -350
-375 0 -20 63 38 346 320 l346 345 -5 -79 c-6 -78 -6 -79 -53 -127 -36 -36
-62 -53 -103 -65 -130 -38 -236 -144 -272 -274 -10 -37 -34 -67 -136 -170 -90
-92 -123 -132 -123 -150 0 -21 18 -7 118 93 l118 118 12 -63 12 -63 -130 -130
c-97 -97 -130 -137 -130 -155 0 -21 22 -3 140 115 77 77 140 133 140 125 0 -9
11 -31 24 -51 l24 -36 -164 -164 c-125 -124 -164 -170 -164 -189 0 -21 28 3
175 150 l175 175 37 -38 38 -37 -213 -213 c-162 -162 -212 -218 -212 -237 0
-21 39 14 225 200 l225 225 37 -38 38 -37 -263 -263 c-202 -202 -262 -268
-262 -287 0 -20 49 24 275 250 l275 275 37 -38 38 -37 -313 -313 c-242 -242
-312 -318 -312 -337 0 -20 59 34 325 300 l325 325 37 -38 38 -37 -363 -363
c-282 -282 -362 -368 -362 -387 0 -20 69 44 375 350 l375 375 37 -38 38 -37
-413 -413 c-322 -322 -412 -418 -412 -437 0 -20 79 54 424 399 l424 424 26
-16 c14 -9 40 -17 58 -17 31 0 4 -29 -450 -483 -378 -378 -482 -487 -482 -507
0 -20 103 78 546 520 l545 545 34 -40 35 -40 -580 -580 c-457 -457 -580 -585
-580 -605 0 -20 113 88 593 568 l592 592 38 -37 37 -38 -602 -602 c-488 -488
-598 -603 -578 -603 20 0 151 125 615 589 l590 590 40 -34 40 -35 -555 -555
c-451 -451 -550 -555 -530 -555 20 0 140 115 569 544 l544 544 42 -32 43 -31
-511 -513 c-416 -416 -507 -512 -487 -512 20 0 133 108 526 501 l501 501 46
-29 47 -28 -472 -472 c-384 -384 -468 -473 -448 -473 20 0 125 100 487 462
l462 462 51 -24 51 -24 -438 -438 c-357 -357 -433 -438 -413 -438 20 0 117 92
454 429 l429 429 46 -20 c25 -12 48 -22 51 -25 2 -2 -178 -186 -400 -408 -330
-330 -400 -405 -380 -405 19 0 112 88 425 400 l401 401 49 -18 c28 -10 52 -19
55 -21 2 -1 -167 -174 -375 -382 -310 -310 -375 -380 -355 -380 19 0 108 83
401 376 l376 376 44 -12 c24 -6 51 -13 58 -16 10 -3 -108 -128 -344 -364 -295
-295 -355 -360 -335 -360 20 0 103 78 380 355 l355 356 60 -7 c33 -3 62 -8 65
-11 2 -2 -151 -159 -340 -348 -282 -282 -340 -345 -320 -345 19 0 102 77 371
346 l346 346 68 -7 67 -8 -338 -338 c-277 -277 -334 -339 -314 -339 19 0 101
76 365 339 l340 340 80 6 80 7 -345 -346 c-283 -284 -340 -346 -320 -346 20 0
101 76 374 349 l349 349 75 12 c42 7 83 14 91 17 9 3 -148 -159 -349 -361
-298 -299 -360 -366 -340 -366 19 0 107 82 396 371 l371 371 113 38 113 38
-409 -409 c-334 -334 -404 -409 -384 -409 20 0 118 93 455 431 376 376 438
435 496 464 l66 34 22 -22 21 -22 -442 -442 c-361 -361 -438 -443 -418 -443
20 0 118 93 455 430 l430 430 37 -37 38 -37 -392 -393 c-321 -321 -388 -393
-368 -393 20 0 108 83 405 380 l380 380 37 -37 38 -37 -342 -343 c-281 -281
-338 -343 -318 -343 20 0 98 73 355 330 326 326 330 329 350 311 11 -10 31
-24 44 -31 23 -12 15 -21 -275 -311 -255 -255 -295 -299 -272 -299 21 0 187
160 932 906 743 743 906 911 906 933 0 22 -43 -17 -290 -264 -243 -243 -288
-284 -280 -255 5 19 10 57 10 85 l0 50 280 280 c217 217 280 285 280 305 0 20
-49 -24 -280 -255 -153 -153 -281 -277 -282 -275 -2 3 -11 28 -20 55 l-18 50
300 300 c233 233 300 306 300 325 0 20 -56 -31 -309 -284 l-309 -308 -35 38
-36 39 344 345 c269 269 345 351 345 370 0 20 -66 -41 -358 -333 l-358 -358
-48 27 -48 27 406 406 c317 317 406 412 406 431 0 20 -76 -51 -409 -384 l-409
-409 38 113 38 113 371 371 c289 289 371 377 371 396 0 20 -67 -42 -366 -340
-202 -201 -364 -357 -360 -346 3 10 11 50 17 90 l12 71 348 350 c271 272 349
356 349 375 0 20 -63 -38 -345 -320 l-346 -345 7 80 6 80 339 340 c263 264
339 346 339 365 0 20 -62 -37 -338 -313 l-339 -339 -6 69 -7 68 345 345 c269
269 345 351 345 370 0 20 -63 -38 -344 -319 -189 -189 -346 -339 -348 -335 -3
5 -8 34 -12 64 l-7 55 356 355 c277 277 355 360 355 380 0 20 -65 -40 -359
-334 l-359 -359 -12 44 c-6 24 -13 51 -16 59 -2 10 132 151 371 390 293 293
375 380 375 400 0 20 -69 -44 -380 -355 -253 -253 -381 -374 -384 -364 -3 7
-12 32 -20 55 l-14 41 399 399 c313 312 399 404 399 424 0 20 -74 -49 -405
-380 -222 -222 -406 -402 -407 -400 -2 3 -13 26 -25 51 l-21 46 429 429 c337
336 429 434 429 454 0 20 -80 -55 -433 -408 -237 -237 -434 -432 -437 -432 -3
0 -17 20 -30 45 l-25 45 463 463 c362 362 462 467 462 487 0 20 -89 -64 -473
-448 -473 -473 -473 -473 -486 -446 -12 26 -8 30 158 199 141 142 176 183 201
236 26 56 65 99 315 349 221 221 285 290 285 310 0 20 -49 -24 -280 -255
l-280 -280 0 75 0 75 280 280 c217 217 280 285 280 305 0 20 -51 -26 -287
-262 l-288 -286 -24 50 -24 50 312 312 c241 241 311 317 311 336 0 20 -59 -34
-323 -298 l-322 -322 -38 37 -37 38 312 312 c257 257 308 313 288 313 -20 0
-93 -67 -329 -304 l-304 -305 -38 20 c-21 10 -46 19 -56 19 -11 0 93 111 267
285 234 234 280 285 260 285 -19 0 -87 -63 -301 -276 l-275 -275 -77 -2 -77
-2 277 277 c227 227 273 278 253 278 -19 0 -94 -69 -325 -297 -254 -252 -352
-339 -408 -362 -4 -2 -20 7 -33 20 l-25 23 308 308 c253 253 303 308 283 308
-20 0 -91 -66 -324 -299 l-298 -298 -55 20 -54 20 278 279 c229 229 273 278
253 278 -20 0 -87 -62 -300 -275 -267 -267 -276 -275 -315 -275 -22 -1 -60 -5
-84 -9 -43 -9 -41 -6 240 276 228 228 279 284 257 281 -20 -2 -125 -101 -420
-394 l-393 -390 -50 15 c-27 8 -52 16 -55 18 -2 2 164 172 370 378 306 306
370 375 350 375 -19 0 -106 -82 -395 -370 l-371 -371 -54 12 c-30 7 -57 14
-60 16 -2 2 155 163 350 358 290 290 350 355 330 355 -19 0 -104 -79 -380
-353 l-355 -354 -64 10 -64 9 344 344 c282 282 339 344 319 344 -20 0 -100
-75 -367 -342 l-343 -343 -71 3 -72 4 339 339 c277 277 334 339 314 339 -19 0
-100 -75 -365 -340 l-340 -340 -80 -6 -80 -6 345 346 c282 283 340 346 320
346 -19 0 -103 -78 -376 -351 l-351 -351 -73 -14 c-40 -7 -82 -16 -94 -20 -11
-3 145 161 349 365 303 304 365 371 345 371 -20 0 -108 -83 -405 -380 -342
-342 -385 -382 -430 -397 -27 -9 -81 -29 -120 -45 l-70 -29 425 426 c347 347
420 425 400 425 -20 0 -122 -97 -475 -450z m1375 -425 c-91 -91 -105 -103
-108 -83 -14 84 83 187 178 188 l35 0 -105 -105z m435 -165 l-270 -270 -38 38
-38 37 165 160 c299 290 318 305 401 305 l50 0 -270 -270z m-242 235 c20 -14
37 -29 37 -33 0 -4 -60 -67 -133 -140 l-133 -133 -21 23 c-51 57 -52 53 80
186 67 67 124 122 127 122 3 0 22 -11 43 -25z m592 -17 l36 -31 -278 -279
-278 -278 -37 37 -38 37 272 273 c150 150 276 273 280 273 4 0 24 -14 43 -32z
m-495 -73 c13 -14 29 -25 37 -25 7 0 13 -3 13 -7 0 -4 -62 -70 -137 -145
l-137 -138 -38 37 -38 37 132 133 c73 73 135 133 139 133 3 0 16 -11 29 -25z
m550 -104 c-10 -41 -35 -70 -243 -278 l-232 -233 -37 37 -38 37 272 273 273
273 8 -32 c5 -19 4 -50 -3 -77z m-2305 -341 c-383 -383 -446 -442 -486 -455
-68 -23 -157 -79 -217 -138 -68 -66 -86 -99 -78 -146 5 -36 4 -38 -175 -216
l-181 -180 6 80 7 80 701 702 c765 765 698 707 818 711 l45 2 -440 -440z m221
21 l-420 -420 -65 -6 c-36 -4 -75 -9 -86 -12 -11 -3 173 189 410 426 l430 431
75 0 75 0 -419 -419z m548 404 l49 -7 -428 -428 c-406 -406 -430 -428 -449
-414 -11 8 -39 14 -61 14 l-40 0 425 425 c268 268 430 423 440 421 8 -2 37 -7
64 -11z m-564 -18 c0 -1 -297 -299 -660 -662 -552 -552 -658 -654 -651 -625 5
19 17 65 26 101 l17 66 542 541 541 541 75 20 c69 18 110 25 110 18z m705 -8
c22 -5 47 -12 55 -15 16 -6 -1297 -1326 -1344 -1350 -43 -23 -116 -94 -116
-113 0 -9 -39 -56 -88 -104 -87 -86 -88 -87 -122 -77 -19 6 -48 10 -65 10 -27
0 -2 28 285 315 l315 315 53 0 c46 0 58 4 84 30 26 27 29 36 26 80 l-3 50 435
435 c239 239 437 435 440 435 3 0 23 -5 45 -11z m183 -56 l35 -15 -614 -614
c-605 -605 -615 -614 -654 -614 -22 -1 -60 -5 -84 -9 -43 -9 -26 9 600 635
516 516 648 643 663 638 11 -4 35 -13 54 -21z m-1168 -16 c0 -1 -216 -218
-480 -482 -519 -518 -501 -504 -397 -300 49 99 54 104 326 378 l276 278 129
64 c115 58 146 71 146 62z m1236 -80 c6 -17 14 -39 18 -47 4 -11 -157 -178
-551 -572 l-558 -556 -55 11 c-30 6 -57 12 -60 14 -2 2 263 271 590 598 327
327 596 592 599 589 3 -2 10 -19 17 -37z m78 -134 l35 -38 -535 -536 -536
-536 -49 26 -49 26 548 548 c301 301 548 547 549 547 2 0 18 -17 37 -37z
m-406 -680 c-298 -298 -545 -540 -550 -537 -4 3 -8 12 -8 21 0 9 -10 27 -22
40 l-22 24 534 534 535 535 37 -37 38 -37 -542 -543z m500 300 c-114 -114
-148 -143 -170 -143 -62 0 -108 -45 -108 -107 0 -24 -133 -161 -888 -916
l-888 -888 -20 23 c-11 13 -26 31 -34 41 -12 17 78 110 1080 1112 l1095 1095
37 -37 38 -37 -142 -143z m150 -50 c-99 -99 -103 -101 -191 -86 l-39 6 123
123 123 124 38 -37 38 -37 -92 -93z m126 -74 l-66 -67 -37 13 c-20 8 -45 16
-55 20 -17 5 -7 18 64 90 l84 85 38 -37 38 -37 -66 -67z m117 -83 l-50 -50
-43 24 c-24 13 -45 25 -47 27 -3 2 22 30 54 63 l59 60 38 -37 38 -37 -49 -50z
m249 59 c0 -6 -44 -54 -98 -108 l-98 -97 -37 38 -37 38 53 51 c37 36 63 53 90
57 21 4 52 20 70 36 29 26 33 28 45 13 6 -9 12 -22 12 -28z m-38 -247 c-108
-109 -111 -111 -106 -77 4 23 1 46 -9 65 l-16 29 97 98 97 97 25 -50 24 -51
-112 -111z m-788 42 c28 0 -17 -48 -544 -575 -316 -316 -580 -575 -587 -575
-19 0 -70 -48 -77 -72 -3 -13 -131 -149 -286 -303 l-280 -280 -37 38 -38 37
884 884 885 885 24 -20 c14 -10 39 -19 56 -19z m939 -31 l15 -46 -537 -535
c-482 -481 -540 -536 -573 -541 -24 -4 -56 -21 -85 -45 -44 -36 -141 -92 -160
-92 -4 0 147 155 336 344 301 302 348 345 381 350 44 7 67 31 81 82 9 32 57
85 262 291 138 139 254 249 258 245 3 -4 13 -28 22 -53z m-2623 -284 c-224
-224 -321 -315 -337 -315 -36 0 -128 -38 -185 -77 -35 -23 67 85 301 320 347
348 356 356 410 370 31 8 72 15 91 16 34 1 23 -11 -280 -314z m1887 307 c8 -5
-30 -51 -120 -140 -130 -130 -135 -133 -197 -148 -34 -8 -86 -26 -114 -40 -47
-23 -38 -12 129 155 l180 181 55 0 c30 0 60 -4 67 -8z m131 -39 l35 -15 -114
-114 -114 -114 -68 7 -69 6 128 128 c137 138 128 133 202 102z m142 -101 c0
-4 -43 -50 -96 -103 l-97 -97 -46 21 c-25 12 -48 23 -50 25 -3 1 44 52 104
112 l109 109 38 -30 c21 -17 38 -34 38 -37z m510 -33 l13 -51 -514 -514 c-497
-497 -514 -513 -521 -486 -4 16 -17 37 -28 47 -21 19 -18 22 501 541 288 288
526 521 530 518 4 -2 13 -27 19 -55z m-2800 -27 l40 4 -252 -253 -253 -253 -8
66 -9 67 198 198 c193 193 198 197 220 182 15 -9 39 -14 64 -11z m2406 0 c34
4 31 1 -83 -114 l-117 -118 -38 37 -38 37 91 92 91 91 30 -14 c16 -8 45 -13
64 -11z m429 -145 l7 -50 -923 -924 -924 -924 -55 6 c-30 4 -59 9 -64 12 -4 3
430 444 965 979 612 612 976 969 980 962 4 -7 11 -34 14 -61z m-362 -619
c-208 -208 -383 -378 -389 -378 -6 0 -33 -12 -60 -26 -74 -39 -142 -109 -180
-189 -31 -63 -65 -101 -347 -382 l-312 -313 -75 0 -75 0 905 905 905 905 3
-72 3 -72 -378 -378z m-1038 490 c-3 -13 3 -39 13 -60 l19 -36 -318 -318 -318
-318 -28 22 c-15 13 -36 25 -47 29 -14 5 51 75 330 354 192 192 350 349 352
349 1 0 0 -10 -3 -22z m-885 -11 c0 -1 -76 -78 -168 -170 l-168 -168 -33 42
-34 41 64 64 c107 108 214 173 309 188 14 2 26 4 28 5 1 0 2 0 2 -2z m1372
-16 c4 -4 -176 -190 -400 -413 l-407 -407 -50 11 c-27 5 -53 13 -57 17 -4 4
174 188 396 410 l404 403 53 -7 c30 -4 57 -10 61 -14z m-1243 -13 l31 -13
-224 -224 -224 -224 -17 58 -17 58 184 184 c199 200 188 194 267 161z m667
-377 l-389 -390 -50 26 -50 25 322 322 c315 315 323 322 357 318 28 -4 46 3
87 31 45 31 89 54 107 56 3 1 -170 -174 -384 -388z m-1166 236 l-57 -58 -46
28 -46 28 66 66 65 67 38 -37 37 -36 -57 -58z m1840 103 l35 -29 -366 -366
-365 -366 -80 -6 -79 -5 400 401 c220 221 404 401 410 401 5 0 26 -14 45 -30z
m-1252 -16 c13 -9 34 -19 48 -23 22 -6 -3 -34 -291 -321 -272 -271 -313 -309
-296 -270 11 25 23 70 26 100 l7 55 237 238 c129 130 238 237 241 237 3 0 16
-7 28 -16z m2077 -179 l-6 -51 -267 -266 -267 -267 -68 6 -69 6 339 339 c371
371 354 360 338 233z m-3512 -96 c20 -5 37 -13 37 -17 0 -4 -58 -65 -128 -135
l-128 -128 -12 26 c-7 14 -12 43 -12 63 0 33 9 46 82 119 86 86 95 91 161 72z
m587 -5 c22 -9 40 -19 40 -23 0 -3 -124 -130 -275 -281 l-275 -275 -37 38 -38
37 260 260 c143 143 265 260 272 260 7 0 31 -7 53 -16z m-372 -241 l-238 -238
-37 38 -38 37 133 133 133 134 53 -5 54 -4 76 71 c43 39 83 71 89 71 7 0 -95
-107 -225 -237z m3268 151 c-8 -38 -19 -81 -25 -94 -5 -14 -86 -101 -179 -194
l-169 -168 -44 23 c-24 13 -46 25 -49 27 -2 1 104 110 235 242 131 132 240
238 242 236 2 -2 -3 -34 -11 -72z m-3471 -154 l-135 -135 -37 38 -38 37 135
135 134 135 38 -37 38 -37 -135 -136z m675 158 c11 -18 20 -40 20 -48 0 -8
-119 -134 -265 -280 l-265 -265 -37 38 -38 37 275 275 c151 151 278 275 283
275 4 0 16 -15 27 -32z m20 -137 c-14 -50 -25 -62 -253 -289 -199 -199 -225
-222 -237 -207 -12 14 16 46 241 271 139 140 255 254 256 254 1 0 -2 -13 -7
-29z m2679 -170 c-25 -60 -47 -101 -56 -101 -20 0 -105 -45 -140 -74 -23 -19
-33 -22 -42 -13 -9 9 22 45 131 154 78 78 144 141 146 139 2 -2 -16 -49 -39
-105z m-2070 -98 l26 -23 -260 -260 c-143 -143 -264 -260 -269 -260 -6 0 -25
14 -43 32 l-33 32 267 268 c222 222 269 265 276 250 5 -9 21 -27 36 -39z m141
-103 c0 -3 -118 -123 -263 -268 l-263 -263 -43 32 -44 31 263 263 263 263 43
-27 c24 -14 44 -28 44 -31z m420 -385 c-379 -380 -385 -386 -419 -380 -18 4
-45 11 -59 16 -25 10 -16 20 304 340 282 282 335 331 369 339 22 6 72 23 110
39 39 16 72 29 75 30 3 0 -168 -172 -380 -384z m-325 344 l48 -21 -273 -273
-273 -273 -41 25 c-23 14 -43 28 -46 30 -5 4 521 533 531 533 4 0 28 -9 54
-21z m158 -42 l57 -12 -289 -289 -290 -290 -51 24 -51 24 278 278 c153 153
280 278 283 278 3 -1 31 -6 63 -13z m-58 -327 l-321 -321 -34 14 c-19 8 -44
17 -54 21 -17 6 28 55 277 304 l297 297 78 3 77 2 -320 -320z m1282 302 c9 -5
-27 -48 -112 -132 -121 -120 -124 -123 -131 -96 -3 15 -4 48 -1 73 4 37 13 54
53 95 27 27 58 54 69 58 25 11 106 12 122 2z m600 -6 c4 -3 -116 -130 -267
-281 l-275 -275 -37 37 -38 37 247 249 248 248 57 -3 c32 -3 61 -8 65 -12z
m-497 -60 l24 -27 -134 -134 -134 -135 -38 37 -38 37 132 133 c141 141 139
140 188 89z m582 -21 l18 -30 -272 -272 -273 -273 -37 37 -38 37 277 278 c299
299 284 289 325 223z m-503 -51 c18 -9 46 -14 62 -12 27 4 10 -15 -127 -153
l-158 -159 -38 37 -38 37 132 133 c73 73 133 133 134 133 0 0 15 -7 33 -16z
m-847 -347 l-210 -210 -78 -4 -79 -5 280 281 280 281 8 -66 9 -67 -210 -210z
m1368 251 c-10 -37 -43 -75 -240 -273 l-229 -229 -26 24 -26 24 263 263 c155
155 264 257 266 249 2 -8 -2 -34 -8 -58z m-1213 -296 l-114 -114 -79 -19 c-43
-10 -86 -18 -94 -19 -8 0 68 83 169 184 l184 185 24 -52 24 -51 -114 -114z"/>
<path d="M4285 830 c-671 -671 -825 -830 -805 -830 37 0 1643 1607 1638 1639
-2 17 -162 -137 -833 -809z"/>
<path d="M4385 730 c-591 -591 -725 -730 -705 -730 37 0 1443 1407 1438 1439
-2 17 -142 -118 -733 -709z"/>
<path d="M4485 630 c-511 -511 -625 -630 -605 -630 37 0 1243 1207 1238 1239
-2 17 -122 -98 -633 -609z"/>
<path d="M4585 530 c-431 -431 -525 -530 -505 -530 37 0 1043 1007 1038 1039
-2 17 -103 -78 -533 -509z"/>
<path d="M4685 430 c-351 -351 -425 -430 -405 -430 37 0 843 807 838 839 -2
17 -83 -59 -433 -409z"/>
<path d="M4785 330 c-271 -271 -325 -330 -305 -330 37 0 643 607 638 639 -2
17 -63 -39 -333 -309z"/>
<path d="M4885 230 c-191 -191 -226 -230 -205 -230 37 0 443 407 438 439 -2
18 -44 -19 -233 -209z"/>
</g>
</svg>
